<mxfile host="app.diagrams.net" modified="2024-05-10T18:59:39.368Z" agent="Mozilla/5.0 (Macintosh; Intel Mac OS X 10_15_7) AppleWebKit/605.1.15 (KHTML, like Gecko) Version/17.4.1 Safari/605.1.15" etag="_YAg-v-nu_OM1pkmHbH7" version="24.3.1" type="github">
  <diagram name="Page-1" id="bfe91b75-5d2c-26a0-9c1d-138518896778">
    <mxGraphModel dx="2083" dy="3003" grid="1" gridSize="10" guides="1" tooltips="1" connect="1" arrows="1" fold="1" page="1" pageScale="1" pageWidth="1100" pageHeight="850" background="none" math="0" shadow="0">
      <root>
        <mxCell id="0" />
        <mxCell id="1" parent="0" />
        <mxCell id="El8977enEZ29pvBqKqt9-5" value="&lt;font style=&quot;font-size: 27px;&quot;&gt;Zone&lt;/font&gt;&lt;div style=&quot;font-size: 27px;&quot;&gt;&lt;span style=&quot;text-align: start; caret-color: rgba(0, 0, 0, 0.85); color: rgba(0, 0, 0, 0.85); font-family: &amp;quot;YS Text&amp;quot;, &amp;quot;Helvetica Neue&amp;quot;, Arial, Helvetica, sans-serif; background-color: rgb(255, 255, 255);&quot;&gt;&lt;font style=&quot;font-size: 27px;&quot;&gt;ru-central1-a&lt;/font&gt;&lt;/span&gt;&lt;br&gt;&lt;/div&gt;" style="rounded=1;whiteSpace=wrap;html=1;shadow=0;comic=0;strokeColor=#036897;strokeWidth=2;fillColor=none;fontFamily=Verdana;fontSize=28;fontColor=#6881B3;align=center;arcSize=11;verticalAlign=top;movable=1;resizable=1;rotatable=1;deletable=1;editable=1;locked=0;connectable=1;" vertex="1" parent="1">
          <mxGeometry x="100" y="-1570" width="820" height="880" as="geometry" />
        </mxCell>
        <mxCell id="7c3789c024ecab99-81" value="Private-subnet" style="rounded=1;whiteSpace=wrap;html=1;shadow=0;comic=0;strokeColor=#036897;strokeWidth=2;fillColor=none;fontFamily=Verdana;fontSize=28;fontColor=#6881B3;align=center;arcSize=11;verticalAlign=top;movable=1;resizable=1;rotatable=1;deletable=1;editable=1;locked=0;connectable=1;" parent="1" vertex="1">
          <mxGeometry x="155" y="-1055" width="710" height="290" as="geometry" />
        </mxCell>
        <mxCell id="7c3789c024ecab99-78" value="Public-subnet" style="rounded=1;whiteSpace=wrap;html=1;shadow=0;comic=0;strokeColor=#036897;strokeWidth=2;fillColor=none;fontFamily=Verdana;fontSize=28;fontColor=#6881B3;align=center;arcSize=11;verticalAlign=top;movable=1;resizable=1;rotatable=1;deletable=1;editable=1;locked=0;connectable=1;" parent="1" vertex="1">
          <mxGeometry x="145" y="-1465" width="720" height="280" as="geometry" />
        </mxCell>
        <mxCell id="7c3789c024ecab99-53" value="Internet" style="html=1;fillColor=#CCCCCC;strokeColor=#6881B3;gradientColor=none;gradientDirection=north;strokeWidth=2;shape=mxgraph.networks.cloud;fontColor=#6881B3;rounded=0;shadow=0;comic=0;align=center;fontSize=28;" parent="1" vertex="1">
          <mxGeometry x="1030" y="-1410" width="330" height="140" as="geometry" />
        </mxCell>
        <mxCell id="El8977enEZ29pvBqKqt9-1" value="" style="fontColor=#0066CC;verticalAlign=top;verticalLabelPosition=bottom;labelPosition=center;align=center;html=1;outlineConnect=0;fillColor=#CCCCCC;strokeColor=#6881B3;gradientColor=none;gradientDirection=north;strokeWidth=2;shape=mxgraph.networks.server;" vertex="1" parent="1">
          <mxGeometry x="460" y="-1365" width="90" height="100" as="geometry" />
        </mxCell>
        <mxCell id="El8977enEZ29pvBqKqt9-2" value="" style="fontColor=#0066CC;verticalAlign=top;verticalLabelPosition=bottom;labelPosition=center;align=center;html=1;outlineConnect=0;fillColor=#CCCCCC;strokeColor=#6881B3;gradientColor=none;gradientDirection=north;strokeWidth=2;shape=mxgraph.networks.firewall;" vertex="1" parent="1">
          <mxGeometry x="575" y="-1365" width="100" height="100" as="geometry" />
        </mxCell>
        <mxCell id="El8977enEZ29pvBqKqt9-3" value="" style="fontColor=#0066CC;verticalAlign=top;verticalLabelPosition=bottom;labelPosition=center;align=center;html=1;outlineConnect=0;fillColor=#CCCCCC;strokeColor=#6881B3;gradientColor=none;gradientDirection=north;strokeWidth=2;shape=mxgraph.networks.server_storage;" vertex="1" parent="1">
          <mxGeometry x="460" y="-945" width="105" height="105" as="geometry" />
        </mxCell>
        <mxCell id="El8977enEZ29pvBqKqt9-4" value="" style="fontColor=#0066CC;verticalAlign=top;verticalLabelPosition=bottom;labelPosition=center;align=center;html=1;outlineConnect=0;fillColor=#CCCCCC;strokeColor=#6881B3;gradientColor=none;gradientDirection=north;strokeWidth=2;shape=mxgraph.networks.server;" vertex="1" parent="1">
          <mxGeometry x="245" y="-945" width="90" height="100" as="geometry" />
        </mxCell>
        <mxCell id="El8977enEZ29pvBqKqt9-6" value="" style="fontColor=#0066CC;verticalAlign=top;verticalLabelPosition=bottom;labelPosition=center;align=center;html=1;outlineConnect=0;fillColor=#CCCCCC;strokeColor=#6881B3;gradientColor=none;gradientDirection=north;strokeWidth=2;shape=mxgraph.networks.server;" vertex="1" parent="1">
          <mxGeometry x="675" y="-950" width="90" height="100" as="geometry" />
        </mxCell>
        <mxCell id="El8977enEZ29pvBqKqt9-7" value="" style="fontColor=#0066CC;verticalAlign=top;verticalLabelPosition=bottom;labelPosition=center;align=center;html=1;outlineConnect=0;fillColor=#CCCCCC;strokeColor=#6881B3;gradientColor=none;gradientDirection=north;strokeWidth=2;shape=mxgraph.networks.pc;" vertex="1" parent="1">
          <mxGeometry x="1640" y="-1375" width="100" height="70" as="geometry" />
        </mxCell>
        <mxCell id="El8977enEZ29pvBqKqt9-8" value="" style="fontColor=#0066CC;verticalAlign=top;verticalLabelPosition=bottom;labelPosition=center;align=center;html=1;outlineConnect=0;fillColor=#CCCCCC;strokeColor=#6881B3;gradientColor=none;gradientDirection=north;strokeWidth=2;shape=mxgraph.networks.pc;" vertex="1" parent="1">
          <mxGeometry x="1630" y="-1210" width="100" height="70" as="geometry" />
        </mxCell>
        <mxCell id="El8977enEZ29pvBqKqt9-9" value="" style="fontColor=#0066CC;verticalAlign=top;verticalLabelPosition=bottom;labelPosition=center;align=center;html=1;outlineConnect=0;fillColor=#CCCCCC;strokeColor=#6881B3;gradientColor=none;gradientDirection=north;strokeWidth=2;shape=mxgraph.networks.pc;" vertex="1" parent="1">
          <mxGeometry x="1630" y="-1015" width="100" height="70" as="geometry" />
        </mxCell>
        <mxCell id="El8977enEZ29pvBqKqt9-10" value="" style="fontColor=#0066CC;verticalAlign=top;verticalLabelPosition=bottom;labelPosition=center;align=center;html=1;outlineConnect=0;fillColor=#CCCCCC;strokeColor=#6881B3;gradientColor=none;gradientDirection=north;strokeWidth=2;shape=mxgraph.networks.mobile;" vertex="1" parent="1">
          <mxGeometry x="1200" y="-1030" width="50" height="100" as="geometry" />
        </mxCell>
        <mxCell id="El8977enEZ29pvBqKqt9-12" value="" style="fontColor=#0066CC;verticalAlign=top;verticalLabelPosition=bottom;labelPosition=center;align=center;html=1;outlineConnect=0;fillColor=#CCCCCC;strokeColor=#6881B3;gradientColor=none;gradientDirection=north;strokeWidth=2;shape=mxgraph.networks.laptop;" vertex="1" parent="1">
          <mxGeometry x="1470" y="-750" width="100" height="55" as="geometry" />
        </mxCell>
        <mxCell id="El8977enEZ29pvBqKqt9-13" value="" style="fontColor=#0066CC;verticalAlign=top;verticalLabelPosition=bottom;labelPosition=center;align=center;html=1;outlineConnect=0;fillColor=#CCCCCC;strokeColor=#6881B3;gradientColor=none;gradientDirection=north;strokeWidth=2;shape=mxgraph.networks.mobile;" vertex="1" parent="1">
          <mxGeometry x="1470" y="-1580" width="50" height="100" as="geometry" />
        </mxCell>
        <mxCell id="El8977enEZ29pvBqKqt9-14" value="" style="fontColor=#0066CC;verticalAlign=top;verticalLabelPosition=bottom;labelPosition=center;align=center;html=1;outlineConnect=0;fillColor=#CCCCCC;strokeColor=#6881B3;gradientColor=none;gradientDirection=north;strokeWidth=2;shape=mxgraph.networks.switch;" vertex="1" parent="1">
          <mxGeometry x="455" y="-1128" width="100" height="30" as="geometry" />
        </mxCell>
        <mxCell id="El8977enEZ29pvBqKqt9-21" value="" style="line;strokeWidth=2;html=1;" vertex="1" parent="1">
          <mxGeometry x="1340" y="-1345" width="300" height="10" as="geometry" />
        </mxCell>
        <mxCell id="El8977enEZ29pvBqKqt9-22" value="" style="line;strokeWidth=2;html=1;rotation=25;direction=west;" vertex="1" parent="1">
          <mxGeometry x="1342.2" y="-1241.37" width="298.04" height="10" as="geometry" />
        </mxCell>
        <mxCell id="El8977enEZ29pvBqKqt9-23" value="" style="line;strokeWidth=2;html=1;" vertex="1" parent="1">
          <mxGeometry x="675" y="-1315" width="355" height="10" as="geometry" />
        </mxCell>
        <mxCell id="El8977enEZ29pvBqKqt9-24" value="" style="line;strokeWidth=2;html=1;rotation=45;" vertex="1" parent="1">
          <mxGeometry x="1284.8799999999999" y="-1138" width="410.24" height="10" as="geometry" />
        </mxCell>
        <mxCell id="El8977enEZ29pvBqKqt9-25" value="" style="line;strokeWidth=2;html=1;rotation=66;" vertex="1" parent="1">
          <mxGeometry x="1120.63" y="-1012.99" width="569.24" height="10" as="geometry" />
        </mxCell>
        <mxCell id="El8977enEZ29pvBqKqt9-26" value="" style="line;strokeWidth=2;html=1;rotation=-40;" vertex="1" parent="1">
          <mxGeometry x="1276.53" y="-1444.45" width="215.73" height="10" as="geometry" />
        </mxCell>
        <mxCell id="El8977enEZ29pvBqKqt9-27" value="" style="line;strokeWidth=2;html=1;rotation=90;" vertex="1" parent="1">
          <mxGeometry x="1107.5" y="-1157.5" width="235" height="10" as="geometry" />
        </mxCell>
        <mxCell id="El8977enEZ29pvBqKqt9-28" value="" style="line;strokeWidth=2;html=1;rotation=90;" vertex="1" parent="1">
          <mxGeometry x="438.5" y="-1198.5" width="137" height="10" as="geometry" />
        </mxCell>
        <mxCell id="El8977enEZ29pvBqKqt9-29" value="" style="line;strokeWidth=2;html=1;rotation=-45;" vertex="1" parent="1">
          <mxGeometry x="272.48" y="-1026.45" width="231.95" height="10" as="geometry" />
        </mxCell>
        <mxCell id="El8977enEZ29pvBqKqt9-30" value="" style="line;strokeWidth=2;html=1;rotation=90;" vertex="1" parent="1">
          <mxGeometry x="425" y="-1030" width="160" height="10" as="geometry" />
        </mxCell>
        <mxCell id="El8977enEZ29pvBqKqt9-31" value="" style="line;strokeWidth=2;html=1;rotation=45;" vertex="1" parent="1">
          <mxGeometry x="513.51" y="-1029.49" width="218" height="10" as="geometry" />
        </mxCell>
        <mxCell id="El8977enEZ29pvBqKqt9-33" value="nat-instance-sg" style="text;html=1;align=center;verticalAlign=middle;whiteSpace=wrap;rounded=0;fontSize=16;" vertex="1" parent="1">
          <mxGeometry x="564" y="-1404" width="125" height="35" as="geometry" />
        </mxCell>
        <mxCell id="El8977enEZ29pvBqKqt9-34" value="10.1.0.3" style="text;html=1;align=center;verticalAlign=middle;whiteSpace=wrap;rounded=0;fontSize=16;" vertex="1" parent="1">
          <mxGeometry x="345" y="-1261.37" width="240" height="30" as="geometry" />
        </mxCell>
        <mxCell id="El8977enEZ29pvBqKqt9-35" value="VPN&amp;nbsp;" style="text;html=1;align=center;verticalAlign=middle;whiteSpace=wrap;rounded=0;fontSize=16;" vertex="1" parent="1">
          <mxGeometry x="472" y="-1400" width="75" height="25" as="geometry" />
        </mxCell>
        <mxCell id="El8977enEZ29pvBqKqt9-36" value="repo" style="text;html=1;align=center;verticalAlign=middle;whiteSpace=wrap;rounded=0;fontSize=16;" vertex="1" parent="1">
          <mxGeometry x="460" y="-840" width="82.5" height="30" as="geometry" />
        </mxCell>
        <mxCell id="El8977enEZ29pvBqKqt9-37" value="CA" style="text;html=1;align=center;verticalAlign=middle;whiteSpace=wrap;rounded=0;fontSize=16;" vertex="1" parent="1">
          <mxGeometry x="260" y="-840" width="60" height="30" as="geometry" />
        </mxCell>
        <mxCell id="El8977enEZ29pvBqKqt9-38" value="monitor" style="text;html=1;align=center;verticalAlign=middle;whiteSpace=wrap;rounded=0;fontSize=16;" vertex="1" parent="1">
          <mxGeometry x="690" y="-845" width="60" height="30" as="geometry" />
        </mxCell>
        <mxCell id="El8977enEZ29pvBqKqt9-39" value="192.168.0.3" style="text;html=1;align=center;verticalAlign=middle;whiteSpace=wrap;rounded=0;fontSize=16;" vertex="1" parent="1">
          <mxGeometry x="240" y="-820" width="90" height="40" as="geometry" />
        </mxCell>
        <mxCell id="El8977enEZ29pvBqKqt9-40" value="192.168.0.5" style="text;html=1;align=center;verticalAlign=middle;whiteSpace=wrap;rounded=0;fontSize=16;" vertex="1" parent="1">
          <mxGeometry x="460" y="-820" width="90" height="40" as="geometry" />
        </mxCell>
        <mxCell id="El8977enEZ29pvBqKqt9-41" value="192.168.0.6" style="text;html=1;align=center;verticalAlign=middle;whiteSpace=wrap;rounded=0;fontSize=16;" vertex="1" parent="1">
          <mxGeometry x="670" y="-820" width="90" height="40" as="geometry" />
        </mxCell>
        <mxCell id="El8977enEZ29pvBqKqt9-42" value="nat-instance-route&lt;div&gt;&lt;br&gt;&lt;/div&gt;" style="text;html=1;align=center;verticalAlign=middle;whiteSpace=wrap;rounded=0;fontSize=16;" vertex="1" parent="1">
          <mxGeometry x="513.51" y="-1148" width="155" height="30" as="geometry" />
        </mxCell>
        <mxCell id="El8977enEZ29pvBqKqt9-43" value="&lt;span style=&quot;text-align: start; caret-color: rgba(0, 0, 0, 0.85); color: rgba(0, 0, 0, 0.85); font-family: &amp;quot;YS Text&amp;quot;, &amp;quot;Helvetica Neue&amp;quot;, Arial, Helvetica, sans-serif; font-size: 13px; white-space: pre; background-color: rgb(255, 255, 255);&quot;&gt;158.160.121.105&lt;/span&gt;" style="text;html=1;align=center;verticalAlign=middle;whiteSpace=wrap;rounded=0;fontSize=16;" vertex="1" parent="1">
          <mxGeometry x="520" y="-1261.37" width="110" height="30" as="geometry" />
        </mxCell>
      </root>
    </mxGraphModel>
  </diagram>
</mxfile>
